<svg height="512pt" viewBox="0 -5 512 512" width="512pt" xmlns="http://www.w3.org/2000/svg"><path d="m268.300781 28.480469c-22.066406 22.066406-31.300781 52.089843-27.738281 80.832031.710938 5.734375 5.191406 10.214844 10.925781 10.925781 28.742188 3.5625 58.765625-5.671875 80.832031-27.738281 22.066407-22.066406 31.300782-52.089844 27.738282-80.832031-.710938-5.734375-5.191406-10.214844-10.925782-10.925781-28.742187-3.558594-58.765624 5.671874-80.832031 27.738281zm0 0" fill="#3ea05b"/><path d="m244.144531 116.660156c1.925781 1.925782 4.476563 3.222656 7.34375 3.578125 28.742188 3.5625 58.765625-5.667969 80.832031-27.738281 22.070313-22.066406 31.300782-52.089844 27.738282-80.832031-.355469-2.867188-1.652344-5.417969-3.578125-7.34375zm0 0" fill="#2c7340"/><path d="m165.460938 125.777344c22.066406 22.066406 52.089843 31.300781 80.832031 27.734375 5.734375-.710938 10.214843-5.1875 10.921875-10.921875 3.5625-28.742188-5.667969-58.765625-27.734375-80.832032-22.066407-22.066406-52.089844-31.300781-80.832031-27.738281-5.734376.710938-10.214844 5.191407-10.925782 10.925781-3.5625 28.742188 5.671875 58.765626 27.738282 80.832032zm0 0" fill="#3ea05b"/><path d="m253.636719 149.933594c1.925781-1.925782 3.222656-4.476563 3.582031-7.34375 3.5625-28.746094-5.671875-58.765625-27.738281-80.835938-22.066407-22.066406-52.089844-31.296875-80.832031-27.734375-2.867188.355469-5.421876 1.652344-7.347657 3.578125zm0 0" fill="#2c7340"/><path d="m311.597656 132.234375c0-17.972656-14.675781-32.542969-32.777344-32.542969-18.105468 0-32.78125 14.570313-32.78125 32.542969 0 17.96875 14.675782 32.539063 32.78125 32.539063 18.101563 0 32.777344-14.570313 32.777344-32.539063zm0 0" fill="#f07a97"/><path d="m311.597656 132.234375c0 17.96875-14.675781 32.539063-32.777344 32.539063v-65.082032c18.101563 0 32.777344 14.570313 32.777344 32.542969zm0 0" fill="#e6486d"/><path d="m130.109375 128.09375h-115.109375c-8.285156 0-15 6.71875-15 15 0 8.285156 6.714844 15 15 15h115.109375c8.285156 0 15-6.714844 15-15 0-8.28125-6.714844-15-15-15zm0 0" fill="#b5c9f5"/><path d="m497 128.09375h-115.402344c-8.285156 0-15 6.71875-15 15 0 8.285156 6.714844 15 15 15h115.402344c8.285156 0 15-6.714844 15-15 0-8.28125-6.714844-15-15-15zm0 0" fill="#b5c9f5"/><path d="m265.105469 244.289062c-2.417969-5.40625-7.78125-8.882812-13.699219-8.882812-.03125 0-.066406 0-.101562 0-5.953126.042969-11.320313 3.601562-13.675782 9.070312l-35.761718 83.101563c-3.277344 7.609375.238281 16.433594 7.847656 19.707031 1.933594.832032 3.945312 1.226563 5.921875 1.226563 5.8125 0 11.34375-3.398438 13.785156-9.074219l1.914063-4.445312h41.417968l2.070313 4.632812c3.378906 7.566406 12.246093 10.957031 19.8125 7.582031 7.5625-3.378906 10.957031-12.25 7.582031-19.8125zm-20.859375 60.703126 7.414062-17.230469 7.695313 17.230469zm0 0" fill="#fbd43a"/><path d="m302.214844 327.390625-37.113282-83.101563c-2.414062-5.40625-7.78125-8.882812-13.695312-8.882812-.035156 0-.066406 0-.101562 0 .101562 0 .355468 52.355469.355468 52.355469l7.695313 17.230469h-7.277344v30h20.675781l2.066406 4.632812c3.378907 7.566406 12.25 10.957031 19.816407 7.582031 7.5625-3.378906 10.957031-12.25 7.578125-19.816406zm0 0" fill="#fb8626"/><path d="m177.175781 235.078125c-8.28125 0-15 6.714844-15 15v36.617187h-31.34375v-36.617187c0-8.285156-6.714843-15-15-15-8.28125 0-15 6.714844-15 15v83.429687c0 8.285157 6.71875 15 15 15 8.285157 0 15-6.714843 15-15v-16.8125h31.34375v16.8125c0 8.285157 6.71875 15 15 15 8.285157 0 15-6.714843 15-15v-83.429687c0-8.285156-6.714843-15-15-15zm0 0" fill="#fbd43a"/><path d="m390.121094 234.460938c-8.28125 0-15 6.714843-15 15v40.679687l-39.234375-49.945313c-3.949219-5.027343-10.652344-7-16.699219-4.910156-6.042969 2.089844-10.097656 7.78125-10.097656 14.175782v84.054687c0 8.285156 6.71875 15 15 15 8.285156 0 15-6.714844 15-15v-40.679687l39.238281 49.945312c2.898437 3.691406 7.28125 5.734375 11.796875 5.734375 1.636719 0 3.292969-.269531 4.898438-.824219 6.046874-2.089844 10.097656-7.78125 10.097656-14.175781v-84.054687c0-8.285157-6.714844-15-15-15zm0 0" fill="#fb8626"/><path d="m510.195312 326.679688-23.226562-53.054688 16.285156-11.316406c6.796875-4.726563 8.484375-14.0625 3.769532-20.863282-4.714844-6.800781-14.050782-8.496093-20.859376-3.792968l-26.445312 18.28125c-.445312.308594-.867188.636718-1.269531.984375l-10.183594 7.074219v-14.347657c0-8.285156-6.714844-15-15-15s-15 6.714844-15 15v83.429688c0 8.277343 6.707031 14.992187 14.984375 15h.015625c8.273437 0 14.984375-6.699219 15-14.96875l.066406-32.625 13.527344-9.402344 20.851563 47.632813c3.324218 7.585937 12.167968 11.046874 19.757812 7.726562 7.589844-3.324219 11.046875-12.167969 7.726562-19.757812zm0 0" fill="#fb8626"/><path d="m195.15625 389.988281c-6.632812-4.96875-16.03125-3.621093-21 3.007813l-20.304688 27.085937-20.300781-27.085937c-4.96875-6.628906-14.371093-7.976563-21-3.007813-6.628906 4.96875-7.976562 14.371094-3.007812 21l29.308593 39.101563v35.832031c0 8.285156 6.714844 15 15 15 8.285157 0 15-6.714844 15-15v-35.828125l29.308594-39.105469c4.96875-6.628906 3.625-16.03125-3.003906-21zm0 0" fill="#fbd43a"/><path d="m253.492188 386.375c-12.738282-.097656-25.101563 4.820312-33.90625 13.542969-8.351563 8.277343-12.953126 19.1875-12.953126 30.722656v26.160156c0 24.492188 20.898438 44.609375 46.582032 44.847657h.441406c12.589844 0 24.765625-4.921876 33.46875-13.546876 8.351562-8.273437 12.949219-19.183593 12.949219-30.722656v-26.15625c.003906-24.492187-20.894531-44.613281-46.582031-44.847656zm16.585937 71.003906c0 4.449219-2.210937 7.574219-4.066406 9.414063-3.121094 3.089843-7.613281 4.855469-12.347657 4.855469-.058593 0-.113281 0-.171874 0-9.296876-.085938-16.859376-6.746094-16.859376-14.847657v-26.160156c0-4.449219 2.210938-7.574219 4.066407-9.410156 3.121093-3.09375 7.613281-4.859375 12.34375-4.859375.058593 0 .117187 0 .175781.003906 9.296875.082031 16.859375 6.746094 16.859375 14.847656zm0 0" fill="#fbd43a"/><path d="m253.492188 386.375-.449219 29.996094c.058593 0 .117187 0 .175781.003906 9.296875.082031 16.859375 6.746094 16.859375 14.847656v26.15625c0 4.449219-2.210937 7.574219-4.066406 9.414063-3.121094 3.089843-7.613281 4.855469-12.347657 4.855469-.058593 0-.113281 0-.171874 0l-.273438 30h.4375c12.589844 0 24.769531-4.921876 33.46875-13.546876 8.351562-8.273437 12.949219-19.183593 12.953125-30.722656v-26.15625c0-24.492187-20.898437-44.613281-46.585937-44.847656zm0 0" fill="#fb8626"/><path d="m392.453125 386.554688c-8.285156 0-15 6.71875-15 15v55.824218c0 4.449219-2.210937 7.574219-4.066406 9.414063-3.160157 3.128906-7.71875 4.867187-12.519531 4.855469-9.296876-.085938-16.859376-6.746094-16.859376-14.847657v-55.824219c0-8.285156-6.714843-15-15-15-8.28125 0-15 6.714844-15 15v55.824219c0 24.492188 20.898438 44.613281 46.585938 44.847657h.441406c12.585938 0 24.765625-4.921876 33.46875-13.546876 8.347656-8.273437 12.949219-19.183593 12.949219-30.71875v-55.824218c0-8.285156-6.714844-15.003906-15-15.003906zm0 0" fill="#fb8626"/><path d="m267.613281 167.988281c0-24.140625-19.710937-43.710937-44.03125-43.710937-24.320312 0-44.03125 19.570312-44.03125 43.710937 0 24.144531 19.710938 43.714844 44.03125 43.714844 24.320313 0 44.03125-19.570313 44.03125-43.714844zm0 0" fill="#f07a97"/><path d="m267.613281 167.988281c0 24.144531-19.710937 43.714844-44.03125 43.714844v-87.425781c24.316407 0 44.03125 19.570312 44.03125 43.710937zm0 0" fill="#e6486d"/><path d="m77.121094 234.582031h-60.992188c-8.28125 0-15 6.714844-15 15 0 8.28125 6.71875 15 15 15h15.496094v68.925781c0 8.285157 6.714844 15 15 15s15-6.714843 15-15v-68.925781h15.496094c8.285156 0 15-6.71875 15-15 0-8.285156-6.714844-15-15-15zm0 0" fill="#fbd43a"/></svg>